<?xml version="1.0" standalone="no"?>
<!DOCTYPE svg PUBLIC "-//W3C//DTD SVG 20010904//EN"
 "http://www.w3.org/TR/2001/REC-SVG-20010904/DTD/svg10.dtd">
<svg version="1.0" xmlns="http://www.w3.org/2000/svg"
 width="600.000000pt" height="600.000000pt" viewBox="0 0 600.000000 600.000000"
 preserveAspectRatio="xMidYMid meet">
<metadata>
Created by potrace 1.16, written by Peter Selinger 2001-2019
</metadata>
<g transform="translate(0.000000,600.000000) scale(0.100000,-0.100000)"
fill="#000000" stroke="none">
<path d="M3310 5541 c0 -15 6 -21 21 -21 14 0 19 -5 16 -14 -3 -8 -1 -17 6
-20 9 -3 9 -7 -1 -14 -10 -7 -7 -13 14 -26 14 -10 24 -13 20 -8 -10 17 12 24
34 10 14 -9 20 -20 17 -36 -6 -29 49 -93 59 -69 7 19 34 11 34 -10 0 -8 -4
-11 -10 -8 -5 3 -10 1 -10 -5 0 -7 8 -9 20 -5 11 3 25 1 32 -5 51 -43 74 -60
81 -60 4 0 7 -7 7 -15 0 -8 4 -15 10 -15 5 0 7 -6 4 -14 -3 -8 -1 -17 5 -21 7
-3 8 0 5 9 -3 9 -1 16 5 16 6 0 12 -6 12 -12 1 -7 2 -18 3 -25 2 -24 80 -83
103 -78 14 2 23 -1 23 -9 0 -8 13 -13 33 -14 28 -1 30 0 12 10 -11 7 -29 20
-40 31 -11 10 -37 33 -58 50 -21 18 -54 47 -74 65 -19 17 -39 32 -44 32 -5 0
-9 8 -9 17 0 9 -3 13 -7 10 -3 -4 -16 4 -28 17 -12 13 -32 29 -44 35 -12 7
-18 17 -15 23 4 7 3 8 -5 4 -12 -8 -41 16 -41 33 0 6 -6 11 -14 11 -8 0 -21 8
-28 18 -16 21 -73 62 -88 62 -5 0 -10 4 -10 10 0 12 58 2 88 -16 12 -8 22 -19
22 -24 0 -6 7 -10 15 -10 8 0 15 5 15 11 0 5 -4 7 -10 4 -5 -3 -10 -2 -10 3 0
11 -77 62 -94 62 -7 0 -16 4 -21 9 -6 5 -20 12 -32 16 -19 5 -23 2 -23 -14z"/>
<path d="M4998 5178 c17 -6 32 -17 32 -24 0 -15 -12 -18 -24 -6 -4 4 -11 7
-14 7 -4 0 -26 6 -49 14 -42 14 -43 14 -64 -13 -15 -20 -25 -24 -32 -17 -18
18 -31 12 -16 -6 10 -12 11 -15 1 -9 -7 4 -19 2 -27 -4 -8 -6 -19 -9 -25 -5
-5 3 -10 0 -10 -7 0 -9 -3 -9 -10 2 -7 11 -10 11 -10 2 0 -7 -4 -11 -9 -7 -5
3 -12 1 -16 -5 -4 -6 -11 -8 -16 -4 -5 3 -16 0 -24 -6 -12 -10 -15 -9 -15 3 0
8 11 18 25 21 14 4 25 11 25 16 0 16 -14 12 -56 -18 -51 -38 -74 -46 -74 -27
0 8 -7 15 -15 15 -8 0 -15 -6 -15 -14 0 -15 -28 -31 -45 -27 -33 9 -75 7 -205
-9 -80 -9 -147 -14 -150 -10 -7 11 -111 -1 -104 -11 10 -17 -22 -19 -65 -4
-53 18 -56 19 -42 1 9 -11 9 -16 0 -22 -8 -4 -9 -3 -5 4 5 8 0 12 -13 12 -10
0 -22 -6 -24 -12 -3 -8 -6 -6 -6 5 -1 9 -5 17 -10 17 -13 0 -21 -26 -11 -36 4
-5 11 -26 14 -46 6 -32 4 -38 -11 -38 -21 0 -1384 -157 -1430 -165 -32 -6 -33
-5 -26 27 3 18 15 47 26 63 l21 30 -22 -19 c-19 -17 -22 -17 -22 -3 0 22 4 32
10 30 3 0 11 6 19 14 12 13 11 14 -10 8 -13 -4 -180 -27 -371 -50 -191 -23
-351 -45 -356 -50 -4 -4 5 -5 21 -3 15 3 30 1 33 -3 3 -5 0 -9 -7 -9 -8 0 -8
-4 1 -15 10 -12 10 -15 -4 -15 -9 0 -16 4 -16 8 0 4 -12 9 -28 10 -15 1 -39 4
-55 6 -15 2 -27 -1 -27 -5 0 -5 5 -9 11 -9 5 0 7 -4 4 -10 -3 -5 -19 -7 -36
-3 -25 5 -28 3 -22 -12 4 -13 3 -16 -6 -11 -7 5 -19 0 -27 -10 -14 -17 -15
-18 -10 -1 5 15 3 16 -16 6 -29 -16 -74 -70 -70 -86 2 -8 -3 -10 -13 -7 -9 4
-17 -1 -21 -12 -3 -11 -12 -31 -20 -45 -7 -14 -11 -29 -8 -32 3 -2 -2 -22 -10
-42 -9 -20 -13 -41 -10 -47 3 -5 0 -16 -7 -24 -10 -13 -10 -17 2 -25 12 -7 7
-12 -11 -11 -3 0 -6 -21 -7 -46 -1 -26 -4 -67 -6 -92 -2 -25 1 -53 6 -64 6
-13 6 -16 -2 -12 -8 5 -8 0 -2 -17 6 -14 7 -28 3 -31 -3 -4 4 -13 16 -22 11
-8 19 -20 16 -27 -8 -22 43 -41 102 -39 55 1 55 1 50 -26 -3 -15 -8 -59 -11
-98 -4 -39 -10 -76 -14 -82 -3 -6 -24 -13 -44 -15 -36 -4 -78 -27 -49 -27 7 0
12 -4 12 -10 0 -5 -13 -10 -30 -10 -26 0 -30 -4 -30 -27 0 -33 -178 -1468
-187 -1500 -5 -23 -5 -23 -47 9 -22 18 -45 38 -49 45 -4 7 -14 13 -22 13 -7 0
-15 6 -17 14 -4 17 -58 84 -116 143 -23 23 -42 47 -42 52 0 5 -7 12 -16 15
-11 4 -14 1 -12 -12 2 -9 9 -16 15 -15 6 1 16 -11 23 -27 7 -17 19 -30 26 -30
8 0 14 -6 14 -14 0 -8 7 -17 16 -20 8 -3 12 -10 9 -16 -3 -5 1 -10 9 -10 9 0
16 -4 16 -10 0 -25 -32 -6 -67 40 -21 28 -50 65 -65 83 -29 33 -35 47 -18 47
17 0 11 17 -18 48 -25 26 -30 28 -38 14 -9 -14 -11 -14 -17 1 -3 9 -2 17 3 17
17 0 11 25 -9 42 -10 8 -21 22 -23 29 -3 8 -16 13 -31 11 -15 -1 -27 3 -27 8
0 6 7 10 16 10 12 0 11 6 -8 29 -13 16 -33 35 -45 42 -12 6 -20 17 -16 22 4 6
1 7 -7 2 -10 -6 -6 -13 13 -27 33 -24 34 -36 5 -40 -20 -3 -21 -4 -5 -20 9 -9
17 -21 17 -26 0 -5 9 -12 21 -15 16 -4 19 -11 14 -26 -4 -13 -2 -21 5 -21 11
0 80 -67 80 -78 0 -4 9 -13 20 -20 11 -7 20 -16 20 -21 0 -6 26 -38 58 -72 31
-34 69 -76 85 -92 15 -17 27 -34 27 -38 0 -5 4 -9 9 -9 5 0 7 10 5 23 -4 19
-3 19 4 3 4 -10 7 -34 6 -52 -3 -27 0 -32 14 -27 9 3 22 10 27 14 13 9 15
-165 3 -177 -11 -11 -10 -36 1 -30 11 7 2 -34 -11 -51 -5 -6 -6 -23 -2 -37 3
-15 1 -32 -5 -40 -7 -8 -9 -25 -5 -39 3 -14 2 -32 -3 -39 -4 -7 -9 -26 -10
-43 -2 -16 -5 -50 -8 -75 -3 -25 -6 -58 -8 -75 -1 -16 -6 -36 -10 -43 -5 -7
-6 -25 -3 -39 4 -14 2 -31 -5 -39 -6 -8 -9 -27 -6 -43 4 -19 1 -33 -8 -41 -8
-6 -11 -18 -8 -26 3 -8 -1 -22 -8 -32 -11 -14 -11 -15 1 -5 23 21 25 16 22
-46 -3 -42 -7 -58 -16 -55 -9 3 -12 -17 -11 -75 0 -44 2 -75 4 -68 4 11 30
-125 32 -165 0 -9 9 -20 20 -23 15 -5 17 -10 9 -20 -9 -10 -3 -16 24 -26 20
-7 36 -19 36 -27 0 -12 3 -12 15 -2 11 9 15 9 15 1 0 -7 4 -10 9 -7 5 3 22 -1
37 -10 l29 -15 -50 4 c-27 2 -40 2 -27 0 12 -2 22 -11 22 -20 0 -11 6 -14 23
-9 12 3 64 6 115 6 73 0 92 3 92 14 0 8 -7 16 -16 18 -10 2 -4 7 16 15 27 10
30 10 20 -3 -10 -11 -9 -14 8 -14 15 0 19 5 15 19 -5 19 28 47 40 34 4 -3 9 2
13 11 3 9 16 16 29 16 12 0 30 11 40 24 11 15 25 22 36 19 11 -3 19 0 19 6 0
6 -9 11 -20 11 -30 0 -24 13 11 29 25 11 36 11 50 2 25 -15 57 -14 61 2 2 11
9 11 38 -1 33 -13 34 -15 15 -28 -16 -12 -17 -14 -2 -14 9 0 26 -9 37 -20 11
-11 27 -20 35 -20 8 0 15 -6 15 -14 0 -8 5 -18 12 -22 8 -5 9 -2 5 10 -4 10
-3 15 3 11 6 -3 10 -15 10 -27 0 -17 2 -18 15 -8 12 10 15 10 15 -3 0 -8 -6
-18 -12 -20 -7 -3 1 -6 17 -6 23 -1 26 2 15 9 -18 11 -5 13 30 3 l25 -7 -24
-6 c-14 -3 -26 -11 -29 -18 -3 -9 23 -12 102 -12 64 0 106 4 106 10 0 6 11 10
24 10 13 0 26 5 28 12 3 7 10 8 17 3 10 -6 6 -11 -15 -21 l-29 -12 27 -1 c17
-1 33 7 42 21 9 12 16 18 16 12 0 -5 -6 -16 -12 -23 -11 -11 -7 -12 22 -7 19
3 29 3 23 0 -18 -8 -16 -24 2 -24 8 0 15 -4 15 -10 0 -5 15 -25 32 -43 64 -67
88 -95 88 -106 0 -6 5 -11 10 -11 6 0 10 -9 10 -20 0 -11 7 -20 15 -20 8 0 15
-4 15 -8 0 -5 23 -32 50 -61 28 -29 50 -58 50 -65 0 -7 11 -18 25 -24 14 -6
25 -15 25 -20 0 -4 12 -22 28 -39 15 -18 36 -44 47 -58 18 -24 66 -72 116
-117 24 -22 24 -36 2 -34 -22 1 -30 8 -94 70 -60 59 -77 56 -19 -4 22 -23 40
-46 40 -51 0 -4 7 -6 15 -3 10 4 15 0 15 -15 0 -12 6 -21 15 -21 8 0 15 -4 15
-10 0 -5 16 -12 35 -16 19 -3 35 -10 35 -15 0 -5 16 -9 35 -9 19 0 35 5 35 10
0 6 11 10 24 10 14 0 31 7 40 15 8 8 19 15 25 15 6 0 11 9 11 20 0 11 7 20 15
20 8 0 15 4 15 9 0 5 11 12 25 15 14 4 25 13 25 21 0 8 7 15 15 15 8 0 15 7
15 15 0 8 5 15 10 15 6 0 10 9 10 20 0 11 7 20 15 20 8 0 15 6 15 13 0 8 12
20 27 28 31 16 63 45 63 57 0 10 38 42 50 42 6 0 10 5 10 10 0 6 14 24 30 40
17 16 30 34 30 40 0 5 6 10 13 10 6 1 23 14 37 30 13 17 28 30 32 30 12 0 48
38 48 51 0 13 55 69 68 69 5 0 12 7 16 15 3 8 12 15 20 15 8 0 24 16 36 35 13
20 30 35 41 35 10 0 19 5 19 10 0 6 8 10 18 11 10 0 12 3 5 6 -27 10 -12 21
18 13 17 -5 161 -6 320 -3 272 6 289 7 289 25 0 14 8 18 33 18 26 1 29 2 15
11 -24 13 -23 26 3 34 13 5 25 2 31 -6 6 -10 7 -6 3 10 -6 19 -4 23 9 18 10
-4 16 -1 16 9 0 8 4 13 9 10 4 -3 16 3 26 14 14 16 15 20 4 21 -8 0 -4 4 9 9
28 12 39 39 21 51 -9 6 33 9 116 9 254 -3 283 -1 299 16 13 12 16 41 16 145 0
74 4 128 9 125 5 -3 12 2 16 12 6 16 7 16 21 -2 11 -16 11 -22 1 -28 -8 -5 -6
-8 7 -8 14 0 17 5 12 25 -5 21 -3 25 14 25 14 0 20 6 18 17 -2 13 3 17 15 15
13 -2 17 2 15 15 -2 10 2 17 10 16 7 -2 12 7 12 22 0 14 5 25 11 25 5 0 8 4 5
8 -8 13 16 82 26 76 4 -3 8 61 8 141 0 249 20 636 35 680 8 22 14 32 15 22 0
-10 -5 -28 -11 -40 -10 -21 -10 -21 5 -3 10 12 16 39 16 68 0 44 2 48 18 39
21 -11 42 3 42 26 0 7 6 13 13 13 7 0 19 9 27 20 8 11 20 20 27 20 7 0 13 7
13 15 0 8 7 15 15 15 8 0 15 8 15 18 0 9 20 31 45 47 24 17 45 36 45 43 0 6 9
12 20 12 12 0 20 7 20 16 0 9 11 25 25 36 14 11 25 26 25 34 0 8 9 14 20 14
13 0 20 7 20 20 0 11 7 20 15 20 8 0 15 7 15 16 0 8 4 13 8 10 13 -8 52 23 52
40 0 8 4 14 8 14 5 0 35 25 67 55 33 30 63 55 67 55 5 0 8 7 8 15 0 8 4 15 9
15 5 0 11 10 13 23 4 20 -3 16 -45 -24 -29 -28 -56 -45 -65 -42 -24 6 -502
-475 -502 -505 0 -24 -15 -30 -23 -9 -6 16 605 632 616 621 4 -4 7 -2 7 6 0 9
3 10 13 1 8 -6 17 -8 20 -4 10 10 8 103 -2 103 -13 0 -24 -34 -12 -38 13 -4
15 -42 2 -42 -5 0 -12 18 -16 40 -4 22 -14 44 -22 49 -9 5 -13 14 -8 20 5 9
11 8 25 -4 16 -15 17 -14 13 10 -3 14 -10 25 -16 25 -5 0 -20 11 -33 25 -13
14 -25 25 -28 25 -14 0 -96 77 -96 89 0 5 -9 13 -20 16 -11 3 -20 11 -20 16 0
6 -4 8 -8 5 -10 -6 -42 29 -42 45 0 5 -4 8 -8 5 -4 -2 -32 17 -62 45 -29 27
-59 49 -67 49 -7 0 -13 7 -13 16 0 8 -4 13 -9 9 -6 -3 -14 3 -20 12 -6 10 -11
15 -11 11 0 -10 -43 26 -89 75 -53 56 -69 63 -81 35 -7 -19 -9 -16 -9 20 -1
26 -5 41 -11 37 -5 -3 -10 1 -10 10 0 9 5 13 10 10 6 -3 10 4 10 17 0 17 -3
19 -9 9 -17 -26 -22 252 -13 634 5 209 6 381 1 383 -5 2 -11 25 -15 52 -4 27
-12 51 -20 54 -9 3 -11 -1 -8 -12 5 -15 4 -15 -6 1 -6 9 -8 22 -4 28 4 8 -1 9
-16 4 -19 -6 -22 -4 -16 10 4 13 2 16 -9 11 -8 -3 -15 0 -15 5 0 7 -11 9 -24
7 -17 -4 -23 -1 -19 9 3 7 12 13 21 13 13 0 14 2 3 13 -10 10 -14 8 -22 -6 -6
-9 -15 -15 -21 -11 -6 4 -5 10 3 15 10 6 8 9 -8 9 -13 0 -23 5 -23 10 0 6 -15
10 -32 9 l-33 -1 33 -10z m-330 -763 c6 -6 5 -73 -2 -165 -3 -47 -13 -240 -21
-430 -9 -190 -20 -370 -26 -400 -32 -171 -195 -344 -384 -408 -44 -15 -98 -22
-320 -37 -329 -24 -355 -27 -355 -41 0 -7 18 -34 40 -59 29 -33 38 -51 31 -59
-16 -19 -2 -77 30 -128 17 -26 178 -192 358 -370 354 -350 418 -420 456 -504
33 -71 32 -102 -5 -152 -24 -33 -37 -42 -63 -44 -17 0 -45 -2 -62 -3 -43 -4
-137 22 -192 52 -52 29 -377 349 -844 832 -151 156 -299 305 -331 331 -62 52
-130 78 -218 85 -49 3 -389 14 -495 16 -22 1 -48 8 -57 16 -9 8 -38 17 -64 18
-51 3 -93 30 -76 47 6 6 8 17 5 24 -4 10 4 14 23 16 16 0 35 2 42 2 7 1 17 8
22 16 5 8 10 11 10 6 0 -5 6 -4 13 1 6 5 25 10 40 11 15 1 36 6 45 11 9 5 37
12 62 15 25 4 79 13 120 21 99 19 343 52 555 75 55 6 116 13 135 16 19 2 100
11 180 19 686 72 687 72 808 158 115 83 186 289 153 448 -13 62 -48 105 -97
118 -19 5 -30 15 -32 29 -3 16 -10 22 -30 22 -15 0 -495 -43 -1067 -95 -782
-72 -1065 -94 -1140 -91 -55 2 -100 5 -100 6 0 1 -18 3 -39 5 -50 5 -65 21
-72 74 -7 62 11 108 54 135 41 27 80 34 377 75 489 67 816 110 1075 141 699
83 1033 122 1160 135 85 8 171 16 190 19 34 3 101 -2 108 -9z m321 -430 c21
-19 43 -35 50 -35 6 0 56 -30 112 -66 75 -50 103 -64 112 -55 19 19 36 12 52
-20 19 -35 14 -48 -12 -29 -10 7 -3 -2 15 -19 19 -18 37 -30 40 -26 4 3 0 10
-8 15 -8 5 -11 12 -7 16 12 12 45 -26 40 -45 -3 -11 1 -22 8 -26 9 -6 11 -2 7
13 -8 31 16 28 36 -3 9 -14 12 -25 6 -25 -24 0 -7 -29 33 -56 23 -16 53 -40
67 -54 40 -40 104 -95 110 -95 3 1 17 -12 31 -28 16 -17 29 -25 33 -19 4 6 -2
15 -11 21 -23 12 -13 22 15 15 12 -4 24 -15 27 -25 4 -10 11 -19 16 -19 6 0 7
-5 4 -10 -5 -8 -11 -7 -21 1 -8 7 -14 7 -14 1 0 -5 7 -16 17 -23 13 -11 17
-11 20 -1 5 14 33 17 33 3 0 -5 -6 -14 -14 -20 -15 -12 -10 -56 8 -81 6 -8 -4
-2 -23 13 -19 16 -37 24 -40 19 -14 -22 -832 -842 -840 -842 -5 0 -11 6 -13
13 -3 9 38 1510 41 1525 4 12 38 -4 70 -33z m-1343 -2746 c4 -7 -168 -186
-420 -438 -372 -372 -425 -429 -412 -440 24 -20 19 -31 -13 -31 -28 0 -41 10
-110 84 -34 36 -51 45 -51 26 0 -5 -5 -10 -10 -10 -7 0 -7 6 0 20 9 16 8 19
-6 13 -12 -4 -15 -3 -10 5 5 8 2 10 -8 6 -9 -4 -26 5 -41 22 -23 25 -24 29
-10 50 14 21 13 24 -5 34 -12 6 -26 23 -31 38 -9 24 -11 25 -20 9 -6 -9 -7
-22 -4 -27 3 -6 2 -10 -3 -10 -17 0 -21 12 -11 37 6 16 6 22 -1 18 -30 -19
-74 32 -63 74 3 12 1 21 -4 21 -5 0 -27 25 -48 55 -20 30 -44 55 -51 55 -12 0
-12 -4 -2 -20 7 -11 18 -20 25 -20 12 0 17 -13 14 -33 -1 -5 4 -5 10 -1 9 5
10 2 6 -9 -3 -10 -2 -17 4 -17 11 0 39 -25 39 -34 0 -25 -54 19 -65 53 -3 12
-11 21 -16 21 -14 0 -49 38 -49 53 0 7 5 18 11 24 9 9 -5 37 -55 112 -36 54
-66 104 -66 109 0 6 -16 29 -35 53 -23 26 -32 46 -27 51 6 6 326 20 733 33
398 12 741 23 761 24 20 0 40 -4 44 -10z m40 -339 c26 0 14 -18 -16 -25 -16
-4 -32 -15 -35 -26 -4 -10 -11 -19 -16 -19 -6 0 -20 -11 -33 -25 -13 -14 -26
-25 -30 -25 -10 0 -46 -39 -46 -50 0 -5 -7 -10 -15 -10 -8 0 -15 -9 -15 -20 0
-11 -4 -20 -8 -20 -5 0 -22 -13 -38 -30 -16 -16 -35 -30 -41 -30 -7 0 -13 -6
-13 -13 0 -7 -9 -19 -20 -27 -11 -8 -20 -20 -20 -27 0 -7 -7 -13 -15 -13 -9 0
-18 -7 -21 -15 -4 -8 -12 -15 -20 -15 -8 0 -14 -7 -14 -15 0 -8 -7 -15 -15
-15 -8 0 -15 -9 -15 -20 0 -11 -7 -20 -15 -20 -8 0 -15 -7 -15 -15 0 -8 -10
-20 -22 -26 -13 -7 -35 -26 -50 -43 -15 -17 -42 -48 -60 -68 -18 -21 -38 -38
-44 -38 -7 0 -14 -7 -17 -14 -3 -8 -22 -18 -41 -22 -20 -3 -36 -10 -36 -15 0
-5 -12 -9 -27 -9 -26 1 -25 3 15 22 23 11 42 24 42 29 0 5 5 9 12 9 11 0 66
54 105 104 10 12 30 30 46 40 15 10 27 22 27 27 0 5 8 17 18 27 9 10 31 35 49
55 17 20 36 37 41 37 9 0 62 45 62 54 0 9 81 86 90 86 6 0 10 7 10 15 0 8 7
15 15 15 8 0 15 4 15 9 0 13 96 111 108 111 6 0 15 6 19 13 4 7 21 20 36 30
16 10 25 23 21 29 -5 8 -1 9 10 5 10 -4 24 -7 32 -7z"/>
<path d="M2410 4930 c-30 -4 -214 -27 -407 -51 -229 -27 -353 -46 -353 -53 0
-8 129 4 408 37 453 54 452 53 452 67 0 11 -20 11 -100 0z"/>
<path d="M5839 3062 c-27 -28 -59 -52 -69 -52 -6 0 -10 -7 -10 -15 0 -9 -11
-20 -24 -26 -13 -6 -27 -20 -29 -30 -3 -11 -12 -19 -20 -19 -8 0 -17 -9 -20
-20 -3 -11 -12 -20 -21 -20 -9 0 -16 -5 -16 -11 0 -14 -25 -39 -39 -39 -6 0
-11 -5 -11 -11 0 -14 -90 -103 -112 -112 -10 -3 -18 -13 -18 -22 0 -8 -6 -15
-13 -15 -6 0 -18 -13 -25 -30 -8 -16 -20 -30 -29 -30 -16 0 -43 -23 -43 -37 0
-5 -9 -16 -20 -26 -23 -20 -27 -39 -5 -31 8 4 15 10 15 15 0 14 33 49 47 49 7
0 13 5 13 10 0 6 7 10 15 10 8 0 15 5 15 12 0 6 20 31 45 55 25 23 45 47 45
53 0 5 6 10 13 10 6 0 21 14 32 30 11 16 23 30 28 30 4 0 27 20 50 45 24 25
49 45 55 45 7 0 12 6 12 13 0 17 53 77 68 77 7 0 12 5 12 10 0 6 7 10 15 10 8
0 15 7 15 15 0 8 6 15 13 15 12 0 57 43 57 55 0 11 -26 2 -41 -13z"/>
</g>
</svg>
